{"title":"John Newman - Love Me Again [Music Video] 1080p [Sbyky]","uid":9418717,"size":77027859,"categoryP":"video","categoryS":"music_videos","magnet":"?xt=urn:btih:e26a3c37f983f484c929c3bdde06efc7ea1c9bfb&amp;dn=John+Newman+-+Love+Me+Again+%5BMusic+Video%5D+1080p+%5BSbyky%5D&amp;tr=udp%3A%2F%2Ftracker.openbittorrent.com%3A80&amp;tr=udp%3A%2F%2Fopen.demonii.com%3A1337&amp;tr=udp%3A%2F%2Ftracker.coppersurfer.tk%3A6969&amp;tr=udp%3A%2F%2Fexodus.desync.com%3A6969","seeders":4,"leechers":1,"uploader":"Sbyky","files":1,"time":1388511516,"description":"\n\nGeneral\nComplete name                            : John Newman - Love Me Again [Music Video] 1080p [Sbyky].mp4\nFormat                                   : MPEG-4\nFormat profile                           : Base Media\nCodec ID                                 : isom\nFile size                                : 73.5 MiB\nDuration                                 : 3mn 55s\nOverall bit rate mode                    : Variable\nOverall bit rate                         : 2 620 Kbps\nEncoded date                             : UTC 2013-12-03 02:54:38\nTagged date                              : UTC 2013-12-03 02:54:38\n\nVideo\nID                                       : 1\nFormat                                   : AVC\nFormat/Info                              : Advanced Video Codec\nFormat profile                           : &lt;a class=&quot;__cf_email__&quot; href=&quot;/cdn-cgi/l/email-protection&quot; data-cfemail=&quot;d59dbcb2bd9599e1fbe5&quot;&gt;[email&amp;#160;protected]&lt;/a&gt;&lt;script cf-hash='f9e31' type=&quot;text/javascript&quot;&gt;\n/* &lt;![CDATA[ */!function(){try{var t=&quot;currentScript&quot;in document?document.currentScript:function(){for(var t=document.getElementsByTagName(&quot;script&quot;),e=t.length;e--;)if(t[e].getAttribute(&quot;cf-hash&quot;))return t[e]}();if(t&amp;&amp;t.previousSibling){var e,r,n,i,c=t.previousSibling,a=c.getAttribute(&quot;data-cfemail&quot;);if(a){for(e=&quot;&quot;,r=parseInt(a.substr(0,2),16),n=2;a.length-n;n+=2)i=parseInt(a.substr(n,2),16)^r,e+=String.fromCharCode(i);e=document.createTextNode(e),c.parentNode.replaceChild(e,c)}}}catch(u){}}();/* ]]&gt; */&lt;/script&gt;\nFormat settings, CABAC                   : Yes\nFormat settings, ReFrames                : 3 frames\nCodec ID                                 : avc1\nCodec ID/Info                            : Advanced Video Coding\nDuration                                 : 3mn 55s\nBit rate                                 : 2 493 Kbps\nWidth                                    : 1 920 pixels\nHeight                                   : 1 080 pixels\nDisplay aspect ratio                     : 16:9\nFrame rate mode                          : Constant\nFrame rate                               : 25.000 fps\nColor space                              : YUV\nChroma subsampling                       : 4:2:0\nBit depth                                : 8 bits\nScan type                                : Progressive\nBits/(Pixel*Frame)                       : 0.048\nStream size                              : 69.9 MiB (95%)\nEncoded date                             : UTC 2013-12-03 02:54:38\nTagged date                              : UTC 2013-12-03 02:54:38\n\nAudio\nID                                       : 2\nFormat                                   : AAC\nFormat/Info                              : Advanced Audio Codec\nFormat profile                           : LC\nCodec ID                                 : 40\nDuration                                 : 3mn 55s\nBit rate mode                            : Variable\nBit rate                                 : 126 Kbps\nChannel(s)                               : 2 channels\nChannel positions                        : Front: L R\nSampling rate                            : 44.1 KHz\nCompression mode                         : Lossy\nDelay relative to video                  : 40ms\nStream size                              : 3.52 MiB (5%)\nEncoded date                             : UTC 2013-12-03 02:53:19\nTagged date                              : UTC 2013-12-03 02:53:19\n\nShared By Sbyky\n","torrent":{"xt":"urn:btih:e26a3c37f983f484c929c3bdde06efc7ea1c9bfb","amp;dn":"John+Newman+-+Love+Me+Again+%5BMusic+Video%5D+1080p+%5BSbyky%5D","amp;tr":["udp%3A%2F%2Ftracker.openbittorrent.com%3A80","udp%3A%2F%2Fopen.demonii.com%3A1337","udp%3A%2F%2Ftracker.coppersurfer.tk%3A6969","udp%3A%2F%2Fexodus.desync.com%3A6969"],"infoHash":"e26a3c37f983f484c929c3bdde06efc7ea1c9bfb","infoHashBuffer":{"type":"Buffer","data":[226,106,60,55,249,131,244,132,201,41,195,189,222,6,239,199,234,28,155,251]},"announce":[],"urlList":[]}}